<?xml version="1.0" encoding="UTF-8" standalone="no"?>
<!DOCTYPE svg PUBLIC "-//W3C//DTD SVG 1.1//EN"
 "http://www.w3.org/Graphics/SVG/1.1/DTD/svg11.dtd">
<!-- Generated by graphviz version 2.42.4 (0)
 -->
<!-- Title: PolicyObjectGraph Pages: 1 -->
<svg width="772pt" height="629pt"
 viewBox="0.00 0.00 772.00 629.00" xmlns="http://www.w3.org/2000/svg" xmlns:xlink="http://www.w3.org/1999/xlink">
<g id="graph0" class="graph" transform="scale(1 1) rotate(0) translate(4 625)">
<title>PolicyObjectGraph</title>
<polygon fill="white" stroke="transparent" points="-4,4 -4,-625 768,-625 768,4 -4,4"/>
<text text-anchor="middle" x="382" y="-607.4" font-family="Arial" font-size="12.00">Policy Object Graph Structure V1 (Structural Layer Only)</text>
<g id="clust1" class="cluster">
<title>cluster_invariants</title>
<path fill="white" stroke="#cbd5e1" stroke-dasharray="5,2" d="M19,-249C19,-249 169,-249 169,-249 175,-249 181,-255 181,-261 181,-261 181,-580 181,-580 181,-586 175,-592 169,-592 169,-592 19,-592 19,-592 13,-592 7,-586 7,-580 7,-580 7,-261 7,-261 7,-255 13,-249 19,-249"/>
<text text-anchor="middle" x="94" y="-578.4" font-family="Arial" font-size="12.00">Minimum Structural Invariants</text>
</g>
<!-- root -->
<g id="node1" class="node">
<title>root</title>
<ellipse fill="#dbeafe" stroke="#2563eb" stroke-width="1.5" cx="94" cy="-221" rx="60.97" ry="18"/>
<text text-anchor="middle" x="94" y="-218.2" font-family="Arial" font-size="11.00">Policy Root Node</text>
</g>
<!-- identity -->
<g id="node2" class="node">
<title>identity</title>
<path fill="#eff6ff" stroke="#334155" d="M439.5,-432C439.5,-432 328.5,-432 328.5,-432 322.5,-432 316.5,-426 316.5,-420 316.5,-420 316.5,-400 316.5,-400 316.5,-394 322.5,-388 328.5,-388 328.5,-388 439.5,-388 439.5,-388 445.5,-388 451.5,-394 451.5,-400 451.5,-400 451.5,-420 451.5,-420 451.5,-426 445.5,-432 439.5,-432"/>
<text text-anchor="middle" x="384" y="-419.2" font-family="Arial" font-size="11.00">Identity Structure</text>
<text text-anchor="middle" x="384" y="-407.2" font-family="Arial" font-size="11.00">(policy id, family, version,</text>
<text text-anchor="middle" x="384" y="-395.2" font-family="Arial" font-size="11.00">scope, source)</text>
</g>
<!-- root&#45;&gt;identity -->
<g id="edge1" class="edge">
<title>root&#45;&gt;identity</title>
<path fill="none" stroke="#64748b" d="M152.11,-226.56C163.18,-230.24 173.61,-236.02 181,-245 199.12,-267.04 171.99,-351.72 191,-373 219.36,-404.74 265.99,-414.26 306.2,-415.72"/>
<polygon fill="#64748b" stroke="#64748b" points="306.2,-419.22 316.26,-415.93 306.34,-412.22 306.2,-419.22"/>
<text text-anchor="middle" x="236.5" y="-416" font-family="Arial" font-size="10.00">recognizes / grounds</text>
</g>
<!-- clause1 -->
<g id="node3" class="node">
<title>clause1</title>
<path fill="#f8fafc" stroke="#334155" d="M433,-323C433,-323 335,-323 335,-323 329,-323 323,-317 323,-311 323,-311 323,-291 323,-291 323,-285 329,-279 335,-279 335,-279 433,-279 433,-279 439,-279 445,-285 445,-291 445,-291 445,-311 445,-311 445,-317 439,-323 433,-323"/>
<text text-anchor="middle" x="384" y="-310.2" font-family="Arial" font-size="11.00">Clause Node A</text>
<text text-anchor="middle" x="384" y="-298.2" font-family="Arial" font-size="11.00">(directive / constraint /</text>
<text text-anchor="middle" x="384" y="-286.2" font-family="Arial" font-size="11.00">parameter / fallback)</text>
</g>
<!-- root&#45;&gt;clause1 -->
<g id="edge2" class="edge">
<title>root&#45;&gt;clause1</title>
<path fill="none" stroke="#64748b" d="M149.17,-228.93C160.53,-232.48 171.83,-237.6 181,-245 188.42,-250.99 183.34,-258.31 191,-264 225.66,-289.72 273.25,-299.02 312.38,-301.86"/>
<polygon fill="#64748b" stroke="#64748b" points="312.46,-305.37 322.65,-302.48 312.88,-298.39 312.46,-305.37"/>
<text text-anchor="middle" x="236.5" y="-300" font-family="Arial" font-size="10.00">contains</text>
</g>
<!-- clause2 -->
<g id="node4" class="node">
<title>clause2</title>
<path fill="#f8fafc" stroke="#334155" d="M726,-294C726,-294 660,-294 660,-294 654,-294 648,-288 648,-282 648,-282 648,-270 648,-270 648,-264 654,-258 660,-258 660,-258 726,-258 726,-258 732,-258 738,-264 738,-270 738,-270 738,-282 738,-282 738,-288 732,-294 726,-294"/>
<text text-anchor="middle" x="693" y="-273.2" font-family="Arial" font-size="11.00">Clause Node B</text>
</g>
<!-- root&#45;&gt;clause2 -->
<g id="edge3" class="edge">
<title>root&#45;&gt;clause2</title>
<path fill="none" stroke="#64748b" d="M152.24,-226.27C267.29,-236.87 525.13,-260.63 637.69,-271"/>
<polygon fill="#64748b" stroke="#64748b" points="637.52,-274.5 647.8,-271.93 638.17,-267.53 637.52,-274.5"/>
<text text-anchor="middle" x="384" y="-258" font-family="Arial" font-size="10.00">contains</text>
</g>
<!-- safep -->
<g id="node5" class="node">
<title>safep</title>
<path fill="#fef3c7" stroke="#d97706" d="M752,-364C752,-364 634,-364 634,-364 628,-364 622,-358 622,-352 622,-352 622,-332 622,-332 622,-326 628,-320 634,-320 634,-320 752,-320 752,-320 758,-320 764,-326 764,-332 764,-332 764,-352 764,-352 764,-358 758,-364 752,-364"/>
<text text-anchor="middle" x="693" y="-351.2" font-family="Arial" font-size="11.00">Safe Point Structure</text>
<text text-anchor="middle" x="693" y="-339.2" font-family="Arial" font-size="11.00">(replacement boundaries /</text>
<text text-anchor="middle" x="693" y="-327.2" font-family="Arial" font-size="11.00">eligibility anchors)</text>
</g>
<!-- root&#45;&gt;safep -->
<g id="edge5" class="edge">
<title>root&#45;&gt;safep</title>
<path fill="none" stroke="#64748b" d="M151.64,-226.96C162.74,-230.62 173.3,-236.29 181,-245 200.93,-267.57 170.07,-290.36 191,-312 247.18,-370.08 484.94,-359.75 611.68,-349.65"/>
<polygon fill="#64748b" stroke="#64748b" points="612.04,-353.13 621.72,-348.83 611.47,-346.15 612.04,-353.13"/>
<text text-anchor="middle" x="384" y="-360" font-family="Arial" font-size="10.00">replacement structure</text>
</g>
<!-- lifecycle -->
<g id="node6" class="node">
<title>lifecycle</title>
<path fill="#f3e8ff" stroke="#7c3aed" d="M456,-214C456,-214 312,-214 312,-214 306,-214 300,-208 300,-202 300,-202 300,-182 300,-182 300,-176 306,-170 312,-170 312,-170 456,-170 456,-170 462,-170 468,-176 468,-182 468,-182 468,-202 468,-202 468,-208 462,-214 456,-214"/>
<text text-anchor="middle" x="384" y="-201.2" font-family="Arial" font-size="11.00">Lifecycle / State Structure</text>
<text text-anchor="middle" x="384" y="-189.2" font-family="Arial" font-size="11.00">(state nodes / transition&#45;bearing</text>
<text text-anchor="middle" x="384" y="-177.2" font-family="Arial" font-size="11.00">substructure)</text>
</g>
<!-- root&#45;&gt;lifecycle -->
<g id="edge7" class="edge">
<title>root&#45;&gt;lifecycle</title>
<path fill="none" stroke="#64748b" d="M151.9,-215.27C191.14,-211.32 244.21,-205.98 289.6,-201.41"/>
<polygon fill="#64748b" stroke="#64748b" points="290.16,-204.87 299.75,-200.38 289.45,-197.9 290.16,-204.87"/>
<text text-anchor="middle" x="236.5" y="-214" font-family="Arial" font-size="10.00">lifecycle slot</text>
</g>
<!-- mech -->
<g id="node7" class="node">
<title>mech</title>
<path fill="#dcfce7" stroke="#16a34a" d="M436,-152C436,-152 332,-152 332,-152 326,-152 320,-146 320,-140 320,-140 320,-128 320,-128 320,-122 326,-116 332,-116 332,-116 436,-116 436,-116 442,-116 448,-122 448,-128 448,-128 448,-140 448,-140 448,-146 442,-152 436,-152"/>
<text text-anchor="middle" x="384" y="-137.2" font-family="Arial" font-size="11.00">Realization Mechanism</text>
<text text-anchor="middle" x="384" y="-125.2" font-family="Arial" font-size="11.00">Binding Node</text>
</g>
<!-- root&#45;&gt;mech -->
<g id="edge8" class="edge">
<title>root&#45;&gt;mech</title>
<path fill="none" stroke="#64748b" d="M133.6,-207.17C151.06,-201.06 171.99,-193.94 191,-188 229.97,-175.83 273.78,-163.42 309.7,-153.56"/>
<polygon fill="#64748b" stroke="#64748b" points="310.88,-156.87 319.61,-150.85 309.04,-150.11 310.88,-156.87"/>
<text text-anchor="middle" x="236.5" y="-191" font-family="Arial" font-size="10.00">binds</text>
</g>
<!-- obs -->
<g id="node9" class="node">
<title>obs</title>
<path fill="#f1f5f9" stroke="#334155" d="M449.5,-98C449.5,-98 318.5,-98 318.5,-98 312.5,-98 306.5,-92 306.5,-86 306.5,-86 306.5,-74 306.5,-74 306.5,-68 312.5,-62 318.5,-62 318.5,-62 449.5,-62 449.5,-62 455.5,-62 461.5,-68 461.5,-74 461.5,-74 461.5,-86 461.5,-86 461.5,-92 455.5,-98 449.5,-98"/>
<text text-anchor="middle" x="384" y="-83.2" font-family="Arial" font-size="11.00">Observation / Audit Structure</text>
<text text-anchor="middle" x="384" y="-71.2" font-family="Arial" font-size="11.00">(lightweight by default)</text>
</g>
<!-- root&#45;&gt;obs -->
<g id="edge10" class="edge">
<title>root&#45;&gt;obs</title>
<path fill="none" stroke="#64748b" d="M113.64,-203.83C132.14,-187.49 161.89,-163.06 191,-147 236.18,-122.07 251.23,-123.87 300,-107 305.5,-105.1 311.23,-103.15 316.98,-101.23"/>
<polygon fill="#64748b" stroke="#64748b" points="318.26,-104.49 326.65,-98.02 316.06,-97.85 318.26,-104.49"/>
<text text-anchor="middle" x="236.5" y="-150" font-family="Arial" font-size="10.00">auditability</text>
</g>
<!-- appl -->
<g id="node10" class="node">
<title>appl</title>
<path fill="#f8fafc" stroke="#94a3b8" stroke-dasharray="5,2" d="M445.5,-44C445.5,-44 322.5,-44 322.5,-44 316.5,-44 310.5,-38 310.5,-32 310.5,-32 310.5,-12 310.5,-12 310.5,-6 316.5,0 322.5,0 322.5,0 445.5,0 445.5,0 451.5,0 457.5,-6 457.5,-12 457.5,-12 457.5,-32 457.5,-32 457.5,-38 451.5,-44 445.5,-44"/>
<text text-anchor="middle" x="384" y="-31.2" font-family="Arial" font-size="11.00">Applicability Structure</text>
<text text-anchor="middle" x="384" y="-19.2" font-family="Arial" font-size="11.00">(optional / often dormant</text>
<text text-anchor="middle" x="384" y="-7.2" font-family="Arial" font-size="11.00">in execution&#45;policy families)</text>
</g>
<!-- root&#45;&gt;appl -->
<g id="edge11" class="edge">
<title>root&#45;&gt;appl</title>
<path fill="none" stroke="#64748b" stroke-dasharray="5,2" d="M105.16,-202.91C120.64,-176.79 152.43,-128.43 191,-99 223.37,-74.3 264.72,-56.38 300.76,-44.07"/>
<polygon fill="#64748b" stroke="#64748b" points="301.89,-47.38 310.28,-40.91 299.69,-40.74 301.89,-47.38"/>
<text text-anchor="middle" x="236.5" y="-102" font-family="Arial" font-size="10.00">applicability slot</text>
</g>
<!-- clause1&#45;&gt;clause2 -->
<g id="edge4" class="edge">
<title>clause1&#45;&gt;clause2</title>
<path fill="none" stroke="#64748b" stroke-dasharray="5,2" d="M445.01,-292.58C458.47,-290.88 472.71,-289.24 486,-288 537.3,-283.21 595.97,-280.02 637.54,-278.13"/>
<polygon fill="#64748b" stroke="#64748b" points="637.89,-281.62 647.73,-277.68 637.58,-274.63 637.89,-281.62"/>
<text text-anchor="middle" x="545" y="-302" font-family="Arial" font-size="10.00">precedence / dependency /</text>
<text text-anchor="middle" x="545" y="-291" font-family="Arial" font-size="10.00">override / exclusion</text>
</g>
<!-- clause1&#45;&gt;safep -->
<g id="edge6" class="edge">
<title>clause1&#45;&gt;safep</title>
<path fill="none" stroke="#64748b" stroke-dasharray="5,2" d="M445.29,-309.05C492.84,-315.4 559.61,-324.32 611.7,-331.28"/>
<polygon fill="#64748b" stroke="#64748b" points="611.54,-334.78 621.91,-332.64 612.46,-327.85 611.54,-334.78"/>
<text text-anchor="middle" x="545" y="-332" font-family="Arial" font-size="10.00">participates in</text>
</g>
<!-- target -->
<g id="node8" class="node">
<title>target</title>
<path fill="#ecfccb" stroke="#65a30d" d="M748,-162C748,-162 638,-162 638,-162 632,-162 626,-156 626,-150 626,-150 626,-118 626,-118 626,-112 632,-106 638,-106 638,-106 748,-106 748,-106 754,-106 760,-112 760,-118 760,-118 760,-150 760,-150 760,-156 754,-162 748,-162"/>
<text text-anchor="middle" x="693" y="-149.2" font-family="Arial" font-size="11.00">Target&#45;Kind Descriptor</text>
<text text-anchor="middle" x="693" y="-137.2" font-family="Arial" font-size="11.00">(optional)</text>
<text text-anchor="middle" x="693" y="-125.2" font-family="Arial" font-size="11.00">(dispatcher / moderator /</text>
<text text-anchor="middle" x="693" y="-113.2" font-family="Arial" font-size="11.00">queue bundle agent / ...)</text>
</g>
<!-- mech&#45;&gt;target -->
<g id="edge9" class="edge">
<title>mech&#45;&gt;target</title>
<path fill="none" stroke="#64748b" stroke-dasharray="5,2" d="M448.24,-134C496.87,-134 564.23,-134 615.83,-134"/>
<polygon fill="#64748b" stroke="#64748b" points="615.93,-137.5 625.93,-134 615.93,-130.5 615.93,-137.5"/>
<text text-anchor="middle" x="545" y="-137" font-family="Arial" font-size="10.00">expects target kind</text>
</g>
<!-- inv1 -->
<g id="node11" class="node">
<title>inv1</title>
<polygon fill="#ffffff" stroke="#334155" points="115,-563 67,-563 67,-527 121,-527 121,-557 115,-563"/>
<polyline fill="none" stroke="#334155" points="115,-563 115,-557 "/>
<polyline fill="none" stroke="#334155" points="121,-557 115,-557 "/>
<text text-anchor="middle" x="94" y="-542.2" font-family="Arial" font-size="11.00">1 Root</text>
</g>
<!-- inv2 -->
<g id="node12" class="node">
<title>inv2</title>
<polygon fill="#ffffff" stroke="#334155" points="160.5,-509 21.5,-509 21.5,-473 166.5,-473 166.5,-503 160.5,-509"/>
<polyline fill="none" stroke="#334155" points="160.5,-509 160.5,-503 "/>
<polyline fill="none" stroke="#334155" points="166.5,-503 160.5,-503 "/>
<text text-anchor="middle" x="94" y="-488.2" font-family="Arial" font-size="11.00">1 Identity&#45;bearing structure</text>
</g>
<!-- inv3 -->
<g id="node13" class="node">
<title>inv3</title>
<polygon fill="#ffffff" stroke="#334155" points="140.5,-455 41.5,-455 41.5,-419 146.5,-419 146.5,-449 140.5,-455"/>
<polyline fill="none" stroke="#334155" points="140.5,-455 140.5,-449 "/>
<polyline fill="none" stroke="#334155" points="146.5,-449 140.5,-449 "/>
<text text-anchor="middle" x="94" y="-434.2" font-family="Arial" font-size="11.00">&gt;=1 Clause nodes</text>
</g>
<!-- inv4 -->
<g id="node14" class="node">
<title>inv4</title>
<polygon fill="#ffffff" stroke="#334155" points="149,-401 33,-401 33,-365 155,-365 155,-395 149,-401"/>
<polyline fill="none" stroke="#334155" points="149,-401 149,-395 "/>
<polyline fill="none" stroke="#334155" points="155,-395 149,-395 "/>
<text text-anchor="middle" x="94" y="-380.2" font-family="Arial" font-size="11.00">&gt;=1 Safe Point nodes</text>
</g>
<!-- inv5 -->
<g id="node15" class="node">
<title>inv5</title>
<polygon fill="#ffffff" stroke="#334155" points="161,-347 21,-347 21,-311 167,-311 167,-341 161,-347"/>
<polyline fill="none" stroke="#334155" points="161,-347 161,-341 "/>
<polyline fill="none" stroke="#334155" points="167,-341 161,-341 "/>
<text text-anchor="middle" x="94" y="-326.2" font-family="Arial" font-size="11.00">1 Mechanism Binding node</text>
</g>
<!-- inv6 -->
<g id="node16" class="node">
<title>inv6</title>
<polygon fill="#ffffff" stroke="#334155" points="166,-293 16,-293 16,-257 172,-257 172,-287 166,-293"/>
<polyline fill="none" stroke="#334155" points="166,-293 166,-287 "/>
<polyline fill="none" stroke="#334155" points="172,-287 166,-287 "/>
<text text-anchor="middle" x="94" y="-272.2" font-family="Arial" font-size="11.00">1 Observation/Audit structure</text>
</g>
</g>
</svg>
