<svg xmlns="http://www.w3.org/2000/svg" width="1600" height="1000">
<rect width="100%" height="100%" fill="#FFFFFF"/>
<text x="800" y="40" text-anchor="middle" font-family="Arial" font-size="28" fill="#111827">Policy Object Graph Structure V1 (Figma-ready Spec View)</text>
<line x1="800.0" y1="116.0" x2="220.0" y2="275.0" stroke="#64748B" stroke-width="2"/>
<rect x="420.0" y="173.5" width="180" height="24" fill="white" opacity="0.92"/>
<text x="510.0" y="189.5" text-anchor="middle" font-family="Arial" font-size="14" fill="#334155">recognizes / grounds</text>
<line x1="800.0" y1="116.0" x2="530.0" y2="275.0" stroke="#64748B" stroke-width="2"/>
<rect x="575.0" y="173.5" width="180" height="24" fill="white" opacity="0.92"/>
<text x="665.0" y="189.5" text-anchor="middle" font-family="Arial" font-size="14" fill="#334155">contains</text>
<line x1="800.0" y1="116.0" x2="830.0" y2="265.0" stroke="#64748B" stroke-width="2"/>
<rect x="725.0" y="168.5" width="180" height="24" fill="white" opacity="0.92"/>
<text x="815.0" y="184.5" text-anchor="middle" font-family="Arial" font-size="14" fill="#334155">contains</text>
<line x1="530.0" y1="275.0" x2="830.0" y2="265.0" stroke="#64748B" stroke-width="2" stroke-dasharray="8,6"/>
<rect x="590.0" y="248.0" width="180" height="24" fill="white" opacity="0.92"/>
<text x="680.0" y="264.0" text-anchor="middle" font-family="Arial" font-size="14" fill="#334155">precedence / dependency / override / exclusion</text>
<line x1="800.0" y1="116.0" x2="1160.0" y2="275.0" stroke="#64748B" stroke-width="2"/>
<rect x="890.0" y="173.5" width="180" height="24" fill="white" opacity="0.92"/>
<text x="980.0" y="189.5" text-anchor="middle" font-family="Arial" font-size="14" fill="#334155">replacement structure</text>
<line x1="530.0" y1="275.0" x2="1160.0" y2="275.0" stroke="#64748B" stroke-width="2" stroke-dasharray="8,6"/>
<rect x="755.0" y="253.0" width="180" height="24" fill="white" opacity="0.92"/>
<text x="845.0" y="269.0" text-anchor="middle" font-family="Arial" font-size="14" fill="#334155">participates in</text>
<line x1="800.0" y1="116.0" x2="260.0" y2="480.0" stroke="#64748B" stroke-width="2"/>
<rect x="440.0" y="276.0" width="180" height="24" fill="white" opacity="0.92"/>
<text x="530.0" y="292.0" text-anchor="middle" font-family="Arial" font-size="14" fill="#334155">lifecycle slot</text>
<line x1="800.0" y1="116.0" x2="640.0" y2="465.0" stroke="#64748B" stroke-width="2"/>
<rect x="630.0" y="268.5" width="180" height="24" fill="white" opacity="0.92"/>
<text x="720.0" y="284.5" text-anchor="middle" font-family="Arial" font-size="14" fill="#334155">binds</text>
<line x1="640.0" y1="465.0" x2="1040.0" y2="480.0" stroke="#64748B" stroke-width="2" stroke-dasharray="8,6"/>
<rect x="750.0" y="450.5" width="180" height="24" fill="white" opacity="0.92"/>
<text x="840.0" y="466.5" text-anchor="middle" font-family="Arial" font-size="14" fill="#334155">expects target kind</text>
<line x1="800.0" y1="116.0" x2="1370.0" y2="465.0" stroke="#64748B" stroke-width="2"/>
<rect x="995.0" y="268.5" width="180" height="24" fill="white" opacity="0.92"/>
<text x="1085.0" y="284.5" text-anchor="middle" font-family="Arial" font-size="14" fill="#334155">auditability</text>
<line x1="800.0" y1="116.0" x2="740.0" y2="670.0" stroke="#64748B" stroke-width="2" stroke-dasharray="8,6"/>
<rect x="680.0" y="371.0" width="180" height="24" fill="white" opacity="0.92"/>
<text x="770.0" y="387.0" text-anchor="middle" font-family="Arial" font-size="14" fill="#334155">applicability slot</text>
<ellipse cx="800.0" cy="116.0" rx="120.0" ry="36.0" fill="#DBEAFE" stroke="#2563EB" stroke-width="2"/>
<text x="800.0" y="112.0" text-anchor="middle" font-family="Arial" font-size="16" fill="#111827">Policy Root Node</text>
<rect x="80" y="220" width="280" height="110" rx="14" ry="14" fill="#EFF6FF" stroke="#334155" stroke-width="2"/>
<text x="220.0" y="261.0" text-anchor="middle" font-family="Arial" font-size="16" fill="#111827">Identity Structure</text>
<text x="220.0" y="281.0" text-anchor="middle" font-family="Arial" font-size="16" fill="#111827">(policy id, family, version, scope, source)</text>
<rect x="400" y="220" width="260" height="110" rx="14" ry="14" fill="#F8FAFC" stroke="#334155" stroke-width="2"/>
<text x="530.0" y="261.0" text-anchor="middle" font-family="Arial" font-size="16" fill="#111827">Clause Node A</text>
<text x="530.0" y="281.0" text-anchor="middle" font-family="Arial" font-size="16" fill="#111827">(directive / constraint / parameter / fallback)</text>
<rect x="720" y="220" width="220" height="90" rx="14" ry="14" fill="#F8FAFC" stroke="#334155" stroke-width="2"/>
<text x="830.0" y="261.0" text-anchor="middle" font-family="Arial" font-size="16" fill="#111827">Clause Node B</text>
<rect x="1000" y="220" width="320" height="110" rx="14" ry="14" fill="#FEF3C7" stroke="#D97706" stroke-width="2"/>
<text x="1160.0" y="261.0" text-anchor="middle" font-family="Arial" font-size="16" fill="#111827">Safe Point Structure</text>
<text x="1160.0" y="281.0" text-anchor="middle" font-family="Arial" font-size="16" fill="#111827">(replacement boundaries / eligibility anchors)</text>
<rect x="100" y="420" width="320" height="120" rx="14" ry="14" fill="#F3E8FF" stroke="#7C3AED" stroke-width="2"/>
<text x="260.0" y="466.0" text-anchor="middle" font-family="Arial" font-size="16" fill="#111827">Lifecycle / State Structure</text>
<text x="260.0" y="486.0" text-anchor="middle" font-family="Arial" font-size="16" fill="#111827">(state nodes / transition-bearing substructure)</text>
<rect x="500" y="420" width="280" height="90" rx="14" ry="14" fill="#DCFCE7" stroke="#16A34A" stroke-width="2"/>
<text x="640.0" y="461.0" text-anchor="middle" font-family="Arial" font-size="16" fill="#111827">Realization Mechanism Binding Node</text>
<rect x="860" y="420" width="360" height="120" rx="14" ry="14" fill="#ECFCCB" stroke="#65A30D" stroke-width="2"/>
<text x="1040.0" y="466.0" text-anchor="middle" font-family="Arial" font-size="16" fill="#111827">Target-Kind Descriptor (optional)</text>
<text x="1040.0" y="486.0" text-anchor="middle" font-family="Arial" font-size="16" fill="#111827">(dispatcher / moderator / queue bundle agent / ...)</text>
<rect x="1240" y="420" width="260" height="90" rx="14" ry="14" fill="#F1F5F9" stroke="#334155" stroke-width="2"/>
<text x="1370.0" y="451.0" text-anchor="middle" font-family="Arial" font-size="16" fill="#111827">Observation / Audit Structure</text>
<text x="1370.0" y="471.0" text-anchor="middle" font-family="Arial" font-size="16" fill="#111827">(lightweight by default)</text>
<rect x="560" y="620" width="360" height="100" rx="14" ry="14" fill="#F8FAFC" stroke="#94A3B8" stroke-width="2" stroke-dasharray="8,6"/>
<text x="740.0" y="656.0" text-anchor="middle" font-family="Arial" font-size="16" fill="#111827">Applicability Structure (optional)</text>
<text x="740.0" y="676.0" text-anchor="middle" font-family="Arial" font-size="16" fill="#111827">(often dormant in execution-policy families)</text>
</svg>