<?xml version="1.0" encoding="UTF-8" standalone="no"?>
<!DOCTYPE svg PUBLIC "-//W3C//DTD SVG 1.1//EN"
 "http://www.w3.org/Graphics/SVG/1.1/DTD/svg11.dtd">
<!-- Generated by graphviz version 2.42.4 (0)
 -->
<!-- Title: TraversalFoundations Pages: 1 -->
<svg width="746pt" height="772pt"
 viewBox="0.00 0.00 746.17 772.22" xmlns="http://www.w3.org/2000/svg" xmlns:xlink="http://www.w3.org/1999/xlink">
<g id="graph0" class="graph" transform="scale(1 1) rotate(0) translate(4 768.22)">
<title>TraversalFoundations</title>
<polygon fill="white" stroke="transparent" points="-4,4 -4,-768.22 742.17,-768.22 742.17,4 -4,4"/>
<text text-anchor="middle" x="369.09" y="-750.62" font-family="Arial" font-size="12.00">Policy Traversal &amp; Orchestration Foundations V1</text>
<g id="clust1" class="cluster">
<title>cluster_minimum</title>
<path fill="white" stroke="#cbd5e1" stroke-dasharray="5,2" d="M46.09,-284.22C46.09,-284.22 190.09,-284.22 190.09,-284.22 196.09,-284.22 202.09,-290.22 202.09,-296.22 202.09,-296.22 202.09,-723.22 202.09,-723.22 202.09,-729.22 196.09,-735.22 190.09,-735.22 190.09,-735.22 46.09,-735.22 46.09,-735.22 40.09,-735.22 34.09,-729.22 34.09,-723.22 34.09,-723.22 34.09,-296.22 34.09,-296.22 34.09,-290.22 40.09,-284.22 46.09,-284.22"/>
<text text-anchor="middle" x="118.09" y="-721.62" font-family="Arial" font-size="12.00">Minimum Foundational Set</text>
</g>
<!-- sc -->
<g id="node1" class="node">
<title>sc</title>
<ellipse fill="#dbeafe" stroke="#2563eb" stroke-width="1.5" cx="118.09" cy="-251.22" rx="118.17" ry="22.76"/>
<text text-anchor="middle" x="118.09" y="-254.42" font-family="Arial" font-size="11.00">Sequence Channel</text>
<text text-anchor="middle" x="118.09" y="-242.42" font-family="Arial" font-size="11.00">(smallest traversal&#45;bearing unit)</text>
</g>
<!-- linear -->
<g id="node2" class="node">
<title>linear</title>
<path fill="#eff6ff" stroke="#334155" d="M485.67,-512.22C485.67,-512.22 367.67,-512.22 367.67,-512.22 361.67,-512.22 355.67,-506.22 355.67,-500.22 355.67,-500.22 355.67,-488.22 355.67,-488.22 355.67,-482.22 361.67,-476.22 367.67,-476.22 367.67,-476.22 485.67,-476.22 485.67,-476.22 491.67,-476.22 497.67,-482.22 497.67,-488.22 497.67,-488.22 497.67,-500.22 497.67,-500.22 497.67,-506.22 491.67,-512.22 485.67,-512.22"/>
<text text-anchor="middle" x="426.67" y="-491.42" font-family="Arial" font-size="11.00">Linear Sequence Channel</text>
</g>
<!-- sc&#45;&gt;linear -->
<g id="edge1" class="edge">
<title>sc&#45;&gt;linear</title>
<path fill="none" stroke="#64748b" d="M215.26,-264.18C223.11,-268.31 230.27,-273.56 236.17,-280.22 280.09,-329.84 215.46,-374.45 254.17,-428.22 275.46,-457.8 311.9,-474.12 345.72,-483.13"/>
<polygon fill="#64748b" stroke="#64748b" points="345.1,-486.58 355.65,-485.59 346.78,-479.79 345.1,-486.58"/>
<text text-anchor="middle" x="286.17" y="-476.22" font-family="Arial" font-size="10.00">channel kind</text>
</g>
<!-- ring -->
<g id="node3" class="node">
<title>ring</title>
<path fill="#eff6ff" stroke="#334155" d="M481.67,-458.22C481.67,-458.22 371.67,-458.22 371.67,-458.22 365.67,-458.22 359.67,-452.22 359.67,-446.22 359.67,-446.22 359.67,-434.22 359.67,-434.22 359.67,-428.22 365.67,-422.22 371.67,-422.22 371.67,-422.22 481.67,-422.22 481.67,-422.22 487.67,-422.22 493.67,-428.22 493.67,-434.22 493.67,-434.22 493.67,-446.22 493.67,-446.22 493.67,-452.22 487.67,-458.22 481.67,-458.22"/>
<text text-anchor="middle" x="426.67" y="-437.42" font-family="Arial" font-size="11.00">Ring Sequence Channel</text>
</g>
<!-- sc&#45;&gt;ring -->
<g id="edge2" class="edge">
<title>sc&#45;&gt;ring</title>
<path fill="none" stroke="#64748b" d="M214.11,-264.44C222.3,-268.5 229.85,-273.67 236.17,-280.22 263.28,-308.34 231.22,-334.63 254.17,-366.22 276.74,-397.28 315.1,-415.44 349.83,-425.98"/>
<polygon fill="#64748b" stroke="#64748b" points="348.94,-429.37 359.51,-428.76 350.87,-422.64 348.94,-429.37"/>
<text text-anchor="middle" x="286.17" y="-416.22" font-family="Arial" font-size="10.00">channel kind</text>
</g>
<!-- singleslot -->
<g id="node4" class="node">
<title>singleslot</title>
<path fill="#f8fafc" stroke="#334155" d="M471.17,-404.22C471.17,-404.22 382.17,-404.22 382.17,-404.22 376.17,-404.22 370.17,-398.22 370.17,-392.22 370.17,-392.22 370.17,-380.22 370.17,-380.22 370.17,-374.22 376.17,-368.22 382.17,-368.22 382.17,-368.22 471.17,-368.22 471.17,-368.22 477.17,-368.22 483.17,-374.22 483.17,-380.22 483.17,-380.22 483.17,-392.22 483.17,-392.22 483.17,-398.22 477.17,-404.22 471.17,-404.22"/>
<text text-anchor="middle" x="426.67" y="-383.42" font-family="Arial" font-size="11.00">Single&#45;Slot Channel</text>
</g>
<!-- sc&#45;&gt;singleslot -->
<g id="edge3" class="edge">
<title>sc&#45;&gt;singleslot</title>
<path fill="none" stroke="#64748b" d="M210.35,-265.44C219.62,-269.28 228.45,-274.12 236.17,-280.22 249.89,-291.08 241.91,-302.75 254.17,-315.22 283.16,-344.72 297.96,-343.39 336.17,-359.22 343.93,-362.44 352.21,-365.46 360.49,-368.23"/>
<polygon fill="#64748b" stroke="#64748b" points="359.57,-371.61 370.16,-371.36 361.73,-364.95 359.57,-371.61"/>
<text text-anchor="middle" x="286.17" y="-354.22" font-family="Arial" font-size="10.00">slot cardinality</text>
</g>
<!-- multislot -->
<g id="node5" class="node">
<title>multislot</title>
<path fill="#f8fafc" stroke="#334155" d="M505.17,-350.22C505.17,-350.22 348.17,-350.22 348.17,-350.22 342.17,-350.22 336.17,-344.22 336.17,-338.22 336.17,-338.22 336.17,-326.22 336.17,-326.22 336.17,-320.22 342.17,-314.22 348.17,-314.22 348.17,-314.22 505.17,-314.22 505.17,-314.22 511.17,-314.22 517.17,-320.22 517.17,-326.22 517.17,-326.22 517.17,-338.22 517.17,-338.22 517.17,-344.22 511.17,-350.22 505.17,-350.22"/>
<text text-anchor="middle" x="426.67" y="-335.42" font-family="Arial" font-size="11.00">Multi&#45;Slot Channel</text>
<text text-anchor="middle" x="426.67" y="-323.42" font-family="Arial" font-size="11.00">(conjunction/composite allowance)</text>
</g>
<!-- sc&#45;&gt;multislot -->
<g id="edge4" class="edge">
<title>sc&#45;&gt;multislot</title>
<path fill="none" stroke="#64748b" d="M191.92,-268.96C206.59,-272.62 221.89,-276.5 236.17,-280.22 274.34,-290.19 316.69,-301.76 351.66,-311.45"/>
<polygon fill="#64748b" stroke="#64748b" points="350.74,-314.83 361.31,-314.13 352.62,-308.09 350.74,-314.83"/>
<text text-anchor="middle" x="286.17" y="-303.22" font-family="Arial" font-size="10.00">slot cardinality</text>
</g>
<!-- entry -->
<g id="node6" class="node">
<title>entry</title>
<path fill="#fef3c7" stroke="#d97706" d="M456.17,-296.22C456.17,-296.22 397.17,-296.22 397.17,-296.22 391.17,-296.22 385.17,-290.22 385.17,-284.22 385.17,-284.22 385.17,-272.22 385.17,-272.22 385.17,-266.22 391.17,-260.22 397.17,-260.22 397.17,-260.22 456.17,-260.22 456.17,-260.22 462.17,-260.22 468.17,-266.22 468.17,-272.22 468.17,-272.22 468.17,-284.22 468.17,-284.22 468.17,-290.22 462.17,-296.22 456.17,-296.22"/>
<text text-anchor="middle" x="426.67" y="-275.42" font-family="Arial" font-size="11.00">Entry Surface</text>
</g>
<!-- sc&#45;&gt;entry -->
<g id="edge5" class="edge">
<title>sc&#45;&gt;entry</title>
<path fill="none" stroke="#64748b" d="M225.89,-260.63C276.44,-265.08 334.45,-270.19 374.88,-273.75"/>
<polygon fill="#64748b" stroke="#64748b" points="374.76,-277.25 385.03,-274.64 375.37,-270.28 374.76,-277.25"/>
<text text-anchor="middle" x="286.17" y="-272.22" font-family="Arial" font-size="10.00">has</text>
</g>
<!-- exitn -->
<g id="node7" class="node">
<title>exitn</title>
<path fill="#fef3c7" stroke="#d97706" d="M452.17,-242.22C452.17,-242.22 401.17,-242.22 401.17,-242.22 395.17,-242.22 389.17,-236.22 389.17,-230.22 389.17,-230.22 389.17,-218.22 389.17,-218.22 389.17,-212.22 395.17,-206.22 401.17,-206.22 401.17,-206.22 452.17,-206.22 452.17,-206.22 458.17,-206.22 464.17,-212.22 464.17,-218.22 464.17,-218.22 464.17,-230.22 464.17,-230.22 464.17,-236.22 458.17,-242.22 452.17,-242.22"/>
<text text-anchor="middle" x="426.67" y="-221.42" font-family="Arial" font-size="11.00">Exit Surface</text>
</g>
<!-- sc&#45;&gt;exitn -->
<g id="edge6" class="edge">
<title>sc&#45;&gt;exitn</title>
<path fill="none" stroke="#64748b" d="M225.89,-241.82C278.19,-237.21 338.47,-231.9 379.02,-228.33"/>
<polygon fill="#64748b" stroke="#64748b" points="379.49,-231.81 389.14,-227.44 378.87,-224.83 379.49,-231.81"/>
<text text-anchor="middle" x="286.17" y="-242.22" font-family="Arial" font-size="10.00">has</text>
</g>
<!-- transition -->
<g id="node8" class="node">
<title>transition</title>
<path fill="#dcfce7" stroke="#16a34a" d="M477.17,-188.22C477.17,-188.22 376.17,-188.22 376.17,-188.22 370.17,-188.22 364.17,-182.22 364.17,-176.22 364.17,-176.22 364.17,-156.22 364.17,-156.22 364.17,-150.22 370.17,-144.22 376.17,-144.22 376.17,-144.22 477.17,-144.22 477.17,-144.22 483.17,-144.22 489.17,-150.22 489.17,-156.22 489.17,-156.22 489.17,-176.22 489.17,-176.22 489.17,-182.22 483.17,-188.22 477.17,-188.22"/>
<text text-anchor="middle" x="426.67" y="-175.42" font-family="Arial" font-size="11.00">Transition</text>
<text text-anchor="middle" x="426.67" y="-163.42" font-family="Arial" font-size="11.00">(successive movement</text>
<text text-anchor="middle" x="426.67" y="-151.42" font-family="Arial" font-size="11.00">between channels)</text>
</g>
<!-- sc&#45;&gt;transition -->
<g id="edge7" class="edge">
<title>sc&#45;&gt;transition</title>
<path fill="none" stroke="#64748b" d="M185.99,-232.68C235.71,-218.89 303.43,-200.12 354.21,-186.04"/>
<polygon fill="#64748b" stroke="#64748b" points="355.42,-189.33 364.13,-183.29 353.55,-182.59 355.42,-189.33"/>
<text text-anchor="middle" x="286.17" y="-215.22" font-family="Arial" font-size="10.00">participates in</text>
</g>
<!-- readiness -->
<g id="node11" class="node">
<title>readiness</title>
<path fill="#f1f5f9" stroke="#334155" d="M468.17,-126.22C468.17,-126.22 385.17,-126.22 385.17,-126.22 379.17,-126.22 373.17,-120.22 373.17,-114.22 373.17,-114.22 373.17,-102.22 373.17,-102.22 373.17,-96.22 379.17,-90.22 385.17,-90.22 385.17,-90.22 468.17,-90.22 468.17,-90.22 474.17,-90.22 480.17,-96.22 480.17,-102.22 480.17,-102.22 480.17,-114.22 480.17,-114.22 480.17,-120.22 474.17,-126.22 468.17,-126.22"/>
<text text-anchor="middle" x="426.67" y="-111.42" font-family="Arial" font-size="11.00">Channel Eligibility /</text>
<text text-anchor="middle" x="426.67" y="-99.42" font-family="Arial" font-size="11.00">Readiness</text>
</g>
<!-- sc&#45;&gt;readiness -->
<g id="edge11" class="edge">
<title>sc&#45;&gt;readiness</title>
<path fill="none" stroke="#64748b" d="M154.51,-229.47C196.64,-204.28 269.63,-162.72 336.17,-135.22 344.86,-131.64 354.19,-128.29 363.43,-125.26"/>
<polygon fill="#64748b" stroke="#64748b" points="364.53,-128.58 373.01,-122.22 362.42,-121.91 364.53,-128.58"/>
<text text-anchor="middle" x="286.17" y="-176.22" font-family="Arial" font-size="10.00">may possess</text>
</g>
<!-- cursor -->
<g id="node12" class="node">
<title>cursor</title>
<path fill="#f1f5f9" stroke="#334155" d="M491.17,-72.22C491.17,-72.22 362.17,-72.22 362.17,-72.22 356.17,-72.22 350.17,-66.22 350.17,-60.22 350.17,-60.22 350.17,-48.22 350.17,-48.22 350.17,-42.22 356.17,-36.22 362.17,-36.22 362.17,-36.22 491.17,-36.22 491.17,-36.22 497.17,-36.22 503.17,-42.22 503.17,-48.22 503.17,-48.22 503.17,-60.22 503.17,-60.22 503.17,-66.22 497.17,-72.22 491.17,-72.22"/>
<text text-anchor="middle" x="426.67" y="-51.42" font-family="Arial" font-size="11.00">Position / Cursor Awareness</text>
</g>
<!-- sc&#45;&gt;cursor -->
<g id="edge12" class="edge">
<title>sc&#45;&gt;cursor</title>
<path fill="none" stroke="#64748b" d="M140.73,-228.74C166.39,-202.76 211.1,-159.6 254.17,-128.22 288.13,-103.49 297.59,-97.84 336.17,-81.22 340.6,-79.32 345.2,-77.49 349.88,-75.75"/>
<polygon fill="#64748b" stroke="#64748b" points="351.32,-78.95 359.56,-72.3 348.97,-72.36 351.32,-78.95"/>
<text text-anchor="middle" x="286.17" y="-131.22" font-family="Arial" font-size="10.00">admits</text>
</g>
<!-- merge -->
<g id="node10" class="node">
<title>merge</title>
<path fill="#f3e8ff" stroke="#7c3aed" d="M723.67,-350.22C723.67,-350.22 621.67,-350.22 621.67,-350.22 615.67,-350.22 609.67,-344.22 609.67,-338.22 609.67,-338.22 609.67,-326.22 609.67,-326.22 609.67,-320.22 615.67,-314.22 621.67,-314.22 621.67,-314.22 723.67,-314.22 723.67,-314.22 729.67,-314.22 735.67,-320.22 735.67,-326.22 735.67,-326.22 735.67,-338.22 735.67,-338.22 735.67,-344.22 729.67,-350.22 723.67,-350.22"/>
<text text-anchor="middle" x="672.67" y="-329.42" font-family="Arial" font-size="11.00">Merge / Join Possibility</text>
</g>
<!-- multislot&#45;&gt;merge -->
<g id="edge10" class="edge">
<title>multislot&#45;&gt;merge</title>
<path fill="none" stroke="#64748b" d="M517.49,-332.22C544.48,-332.22 573.74,-332.22 599.44,-332.22"/>
<polygon fill="#64748b" stroke="#64748b" points="599.47,-335.72 609.47,-332.22 599.47,-328.72 599.47,-335.72"/>
<text text-anchor="middle" x="562.17" y="-335.22" font-family="Arial" font-size="10.00">preserves</text>
</g>
<!-- relation -->
<g id="node9" class="node">
<title>relation</title>
<path fill="#ecfccb" stroke="#65a30d" d="M726.17,-77.22C726.17,-77.22 619.17,-77.22 619.17,-77.22 613.17,-77.22 607.17,-71.22 607.17,-65.22 607.17,-65.22 607.17,-45.22 607.17,-45.22 607.17,-39.22 613.17,-33.22 619.17,-33.22 619.17,-33.22 726.17,-33.22 726.17,-33.22 732.17,-33.22 738.17,-39.22 738.17,-45.22 738.17,-45.22 738.17,-65.22 738.17,-65.22 738.17,-71.22 732.17,-77.22 726.17,-77.22"/>
<text text-anchor="middle" x="672.67" y="-64.42" font-family="Arial" font-size="11.00">Relation</text>
<text text-anchor="middle" x="672.67" y="-52.42" font-family="Arial" font-size="11.00">(edge connector passes</text>
<text text-anchor="middle" x="672.67" y="-40.42" font-family="Arial" font-size="11.00">through relation)</text>
</g>
<!-- transition&#45;&gt;relation -->
<g id="edge8" class="edge">
<title>transition&#45;&gt;relation</title>
<path fill="none" stroke="#64748b" d="M489.27,-146.21C498.7,-142.76 508.26,-139.05 517.17,-135.22 553.77,-119.51 593.66,-98.76 623.73,-82.33"/>
<polygon fill="#64748b" stroke="#64748b" points="625.66,-85.26 632.74,-77.38 622.29,-79.13 625.66,-85.26"/>
<text text-anchor="middle" x="562.17" y="-129.22" font-family="Arial" font-size="10.00">mediated by</text>
</g>
<!-- relation&#45;&gt;sc -->
<g id="edge9" class="edge">
<title>relation&#45;&gt;sc</title>
<path fill="none" stroke="#64748b" stroke-dasharray="5,2" d="M614.89,-33.2C546.62,-10.16 429.56,18.22 336.17,-16.22 237.16,-52.74 165.53,-164.51 135.19,-219.71"/>
<polygon fill="#64748b" stroke="#64748b" points="132.01,-218.23 130.34,-228.69 138.17,-221.55 132.01,-218.23"/>
<text text-anchor="middle" x="426.67" y="-19.22" font-family="Arial" font-size="10.00">to target channel</text>
</g>
<!-- m1 -->
<g id="node13" class="node">
<title>m1</title>
<polygon fill="#ffffff" stroke="#334155" points="166.59,-706.22 63.59,-706.22 63.59,-670.22 172.59,-670.22 172.59,-700.22 166.59,-706.22"/>
<polyline fill="none" stroke="#334155" points="166.59,-706.22 166.59,-700.22 "/>
<polyline fill="none" stroke="#334155" points="172.59,-700.22 166.59,-700.22 "/>
<text text-anchor="middle" x="118.09" y="-685.42" font-family="Arial" font-size="11.00">Sequence Channel</text>
</g>
<!-- m2 -->
<g id="node14" class="node">
<title>m2</title>
<polygon fill="#ffffff" stroke="#334155" points="151.09,-652.22 79.09,-652.22 79.09,-616.22 157.09,-616.22 157.09,-646.22 151.09,-652.22"/>
<polyline fill="none" stroke="#334155" points="151.09,-652.22 151.09,-646.22 "/>
<polyline fill="none" stroke="#334155" points="157.09,-646.22 151.09,-646.22 "/>
<text text-anchor="middle" x="118.09" y="-631.42" font-family="Arial" font-size="11.00">Linear / Ring</text>
</g>
<!-- m3 -->
<g id="node15" class="node">
<title>m3</title>
<polygon fill="#ffffff" stroke="#334155" points="161.09,-598.22 69.09,-598.22 69.09,-562.22 167.09,-562.22 167.09,-592.22 161.09,-598.22"/>
<polyline fill="none" stroke="#334155" points="161.09,-598.22 161.09,-592.22 "/>
<polyline fill="none" stroke="#334155" points="167.09,-592.22 161.09,-592.22 "/>
<text text-anchor="middle" x="118.09" y="-577.42" font-family="Arial" font-size="11.00">Single / Multi&#45;slot</text>
</g>
<!-- m4 -->
<g id="node16" class="node">
<title>m4</title>
<polygon fill="#ffffff" stroke="#334155" points="146.59,-544.22 83.59,-544.22 83.59,-508.22 152.59,-508.22 152.59,-538.22 146.59,-544.22"/>
<polyline fill="none" stroke="#334155" points="146.59,-544.22 146.59,-538.22 "/>
<polyline fill="none" stroke="#334155" points="152.59,-538.22 146.59,-538.22 "/>
<text text-anchor="middle" x="118.09" y="-523.42" font-family="Arial" font-size="11.00">Entry / Exit</text>
</g>
<!-- m5 -->
<g id="node17" class="node">
<title>m5</title>
<polygon fill="#ffffff" stroke="#334155" points="170.09,-490.22 60.09,-490.22 60.09,-454.22 176.09,-454.22 176.09,-484.22 170.09,-490.22"/>
<polyline fill="none" stroke="#334155" points="170.09,-490.22 170.09,-484.22 "/>
<polyline fill="none" stroke="#334155" points="176.09,-484.22 170.09,-484.22 "/>
<text text-anchor="middle" x="118.09" y="-469.42" font-family="Arial" font-size="11.00">Transition + Relation</text>
</g>
<!-- m6 -->
<g id="node18" class="node">
<title>m6</title>
<polygon fill="#ffffff" stroke="#334155" points="174.59,-436.22 55.59,-436.22 55.59,-400.22 180.59,-400.22 180.59,-430.22 174.59,-436.22"/>
<polyline fill="none" stroke="#334155" points="174.59,-436.22 174.59,-430.22 "/>
<polyline fill="none" stroke="#334155" points="180.59,-430.22 174.59,-430.22 "/>
<text text-anchor="middle" x="118.09" y="-415.42" font-family="Arial" font-size="11.00">Merge / Join possibility</text>
</g>
<!-- m7 -->
<g id="node19" class="node">
<title>m7</title>
<polygon fill="#ffffff" stroke="#334155" points="171.09,-382.22 59.09,-382.22 59.09,-346.22 177.09,-346.22 177.09,-376.22 171.09,-382.22"/>
<polyline fill="none" stroke="#334155" points="171.09,-382.22 171.09,-376.22 "/>
<polyline fill="none" stroke="#334155" points="177.09,-376.22 171.09,-376.22 "/>
<text text-anchor="middle" x="118.09" y="-361.42" font-family="Arial" font-size="11.00">Eligibility / Readiness</text>
</g>
<!-- m8 -->
<g id="node20" class="node">
<title>m8</title>
<polygon fill="#ffffff" stroke="#334155" points="188.09,-328.22 42.09,-328.22 42.09,-292.22 194.09,-292.22 194.09,-322.22 188.09,-328.22"/>
<polyline fill="none" stroke="#334155" points="188.09,-328.22 188.09,-322.22 "/>
<polyline fill="none" stroke="#334155" points="194.09,-322.22 188.09,-322.22 "/>
<text text-anchor="middle" x="118.09" y="-307.42" font-family="Arial" font-size="11.00">Position / Cursor awareness</text>
</g>
</g>
</svg>
